<svg aria-hidden="true" style="position: absolute; width: 0; height: 0; overflow: hidden;" version="1.1" xmlns="http://www.w3.org/2000/svg" xmlns:xlink="http://www.w3.org/1999/xlink">
<defs>
  <symbol id="burger-icon" viewBox="0 0 32 32">
    <path d="M4 16H28" stroke-width="3" stroke-linecap="round" stroke-linejoin="round"/>
    <path d="M4 8H28" stroke-width="3" stroke-linecap="round" stroke-linejoin="round"/>
    <path d="M4 24H28" stroke-width="3" stroke-linecap="round" stroke-linejoin="round"/>
  </symbol>
  <symbol id="close-icon" viewBox="0 0 32 32">
    <path d="M24 8L8 24" stroke="white" stroke-width="3" stroke-linecap="round" stroke-linejoin="round"/>
    <path d="M8 8L24 24" stroke="white" stroke-width="3" stroke-linecap="round" stroke-linejoin="round"/>
  </symbol>
  <symbol id="facebook-icon" viewBox="0 0 32 32">
    <path d="M32 16c0-8.838-7.163-16-16-16s-16 7.162-16 16c0 7.988 5.85 14.606 13.5 15.806v-11.181h-4.063v-4.625h4.063v-3.525c0-4.009 2.387-6.225 6.044-6.225 1.75 0 3.581 0.313 3.581 0.313v3.938h-2.019c-1.988 0-2.606 1.234-2.606 2.5v3h4.438l-0.709 4.625h-3.728v11.181c7.65-1.2 13.5-7.819 13.5-15.806z"></path>
  </symbol>
  <symbol id="instagram-icon" viewBox="0 0 32 32">
    <path d="M16 0c-8.837 0-16 7.163-16 16s7.163 16 16 16c8.837 0 16-7.163 16-16s-7.163-16-16-16zM12.482 7.518c0.91-0.041 1.201-0.052 3.519-0.052h-0.003c2.318 0 2.608 0.010 3.518 0.052 0.908 0.042 1.529 0.185 2.073 0.396 0.562 0.218 1.037 0.509 1.511 0.984s0.766 0.95 0.985 1.512c0.21 0.543 0.354 1.163 0.396 2.071 0.041 0.91 0.052 1.201 0.052 3.519s-0.011 2.608-0.052 3.518c-0.043 0.908-0.187 1.528-0.396 2.071-0.219 0.561-0.51 1.037-0.985 1.512s-0.95 0.767-1.511 0.985c-0.543 0.211-1.164 0.355-2.072 0.396-0.91 0.041-1.2 0.052-3.518 0.052s-2.608-0.010-3.518-0.052c-0.908-0.042-1.529-0.186-2.072-0.396-0.561-0.218-1.037-0.51-1.511-0.985s-0.766-0.95-0.984-1.512c-0.211-0.543-0.355-1.163-0.396-2.071-0.041-0.91-0.052-1.2-0.052-3.518s0.011-2.609 0.051-3.519c0.041-0.908 0.185-1.528 0.396-2.071 0.219-0.561 0.51-1.037 0.985-1.511s0.95-0.766 1.512-0.984c0.543-0.211 1.163-0.355 2.071-0.396z"></path>
    <path d="M15.235 9.004v-0.002c-1.59 0.002-1.896 0.012-2.683 0.048-0.832 0.038-1.284 0.177-1.585 0.294-0.398 0.155-0.683 0.34-0.981 0.639s-0.484 0.583-0.639 0.981c-0.117 0.301-0.256 0.752-0.294 1.584-0.041 0.9-0.049 1.168-0.049 3.447s0.008 2.549 0.049 3.449c0.038 0.832 0.177 1.284 0.294 1.584 0.155 0.398 0.34 0.682 0.639 0.981s0.583 0.483 0.981 0.638c0.301 0.117 0.753 0.256 1.585 0.294 0.9 0.041 1.17 0.050 3.448 0.050s2.549-0.009 3.448-0.050c0.832-0.038 1.284-0.177 1.584-0.294 0.398-0.155 0.682-0.34 0.981-0.638s0.484-0.582 0.639-0.98c0.117-0.3 0.256-0.752 0.294-1.584 0.041-0.9 0.050-1.17 0.050-3.447s-0.009-2.548-0.050-3.447c-0.038-0.832-0.177-1.284-0.294-1.584-0.155-0.398-0.34-0.683-0.639-0.981s-0.582-0.484-0.981-0.638c-0.301-0.117-0.752-0.256-1.584-0.294-0.9-0.041-1.17-0.049-3.448-0.049l-0.284-0c-0.173-0-0.332-0-0.481 0zM20.556 10.421v-0c0.565 0 1.024 0.459 1.024 1.024s-0.459 1.024-1.024 1.024c-0.565 0-1.024-0.459-1.024-1.024s0.459-1.024 1.024-1.024zM11.618 16c0-2.42 1.962-4.382 4.382-4.382s4.382 1.962 4.382 4.382-1.962 4.381-4.382 4.381c-2.42 0-4.382-1.961-4.382-4.381z"></path>
    <path d="M16.001 13.156c1.571 0 2.845 1.274 2.845 2.844s-1.274 2.845-2.845 2.845c-1.571 0-2.845-1.274-2.845-2.845s1.274-2.845 2.845-2.845z"></path>
  </symbol>
  <symbol id="marker-map-icon" viewBox="0 0 26 32">
    <path stroke-linejoin="round" stroke-linecap="round" stroke-miterlimit="4" stroke-width="3.0476" d="M24.381 12.952c0 8.889-11.429 16.508-11.429 16.508s-11.429-7.619-11.429-16.508c0-3.031 1.204-5.938 3.347-8.081s5.050-3.347 8.081-3.347c3.031 0 5.938 1.204 8.081 3.347s3.347 5.050 3.347 8.081z"></path>
    <path stroke-linejoin="round" stroke-linecap="round" stroke-miterlimit="4" stroke-width="3.0476" d="M12.952 16.762c2.104 0 3.81-1.706 3.81-3.81s-1.706-3.81-3.81-3.81c-2.104 0-3.81 1.706-3.81 3.81s1.706 3.81 3.81 3.81z"></path>
  </symbol>
  <symbol id="telegram-icon" viewBox="0 0 32 32" >
    <path d="M32 16c0 8.837-7.163 16-16 16s-16-7.163-16-16c0-8.837 7.163-16 16-16s16 7.163 16 16zM10.714 14.534c-1.603 0.7-3.25 1.419-4.756 2.248l-0 0c-0.786 0.576 0.259 0.983 1.239 1.365 0.156 0.061 0.31 0.121 0.455 0.181 0.121 0.037 0.243 0.076 0.368 0.116 1.090 0.347 2.306 0.735 3.365 0.152 1.739-0.999 3.38-2.154 5.020-3.308 0.537-0.378 1.074-0.756 1.615-1.129 0.025-0.016 0.054-0.035 0.085-0.055 0.46-0.298 1.496-0.97 1.113-0.045-0.906 0.99-1.876 1.867-2.851 2.749-0.657 0.594-1.317 1.19-1.961 1.825-0.561 0.456-1.143 1.372-0.515 2.010 1.447 1.013 2.916 2.001 4.384 2.989 0.478 0.321 0.956 0.643 1.432 0.965 0.808 0.645 2.071 0.123 2.249-0.885 0.079-0.464 0.158-0.928 0.238-1.392 0.438-2.563 0.877-5.127 1.264-7.698 0.053-0.403 0.112-0.807 0.172-1.21 0.145-0.978 0.29-1.957 0.335-2.941-0.117-0.981-1.306-0.766-1.969-0.545-3.404 1.295-6.773 2.686-10.129 4.102-0.38 0.168-0.766 0.337-1.153 0.506z"></path>
  </symbol>
  <symbol viewBox="0 0 10 20" id="arow-left">
    <path d="M9 1L1 10L9 19" stroke="#EEEEEE" stroke-width="2" stroke-linecap="round" stroke-linejoin="round"/>
  </symbol>
  <symbol id="arow-right" viewBox="0 0 10 20">
    <path d="M1 1L9 10L1 19" stroke="#EEEEEE" stroke-width="2" stroke-linecap="round" stroke-linejoin="round"/>
  </symbol>
</defs>
</svg>
